inDegrees=no
num_controls=7
num_derivatives=13
num_iterations=102
num_multipliers=7
num_parameters=0
num_slacks=7
num_states=26
objective=0.450697
objective_accelerations=0.044488
objective_balance=0.007665
objective_effort=0.035269
objective_height=0.358344
objective_ligament=0.004931
solver_duration=1520.576876
status=Solve_Succeeded
success=true
DataType=double
version=3
OpenSimVersion=4.5
endheader
time	/jointset/ground_pelvis/pelvis_tilt/value	/jointset/ground_pelvis/pelvis_tx/value	/jointset/ground_pelvis/pelvis_ty/value	/jointset/hip_l/hip_flexion_l/value	/jointset/hip_l/hip_adduction_l/value	/jointset/hip_l/hip_rotation_l/value	/jointset/back/lumbar_extension/value	/jointset/patellofemoral_l/patellar_flexion_l/value	/jointset/knee_l/knee_flexion_l/value	/jointset/knee_l/knee_adduction_l/value	/jointset/knee_l/knee_rotation_l/value	/jointset/ankle_l/ankle_angle_l/value	/jointset/subtalar_l/subtalar_angle_l/value	/jointset/ground_pelvis/pelvis_tilt/speed	/jointset/ground_pelvis/pelvis_tx/speed	/jointset/ground_pelvis/pelvis_ty/speed	/jointset/hip_l/hip_flexion_l/speed	/jointset/hip_l/hip_adduction_l/speed	/jointset/hip_l/hip_rotation_l/speed	/jointset/back/lumbar_extension/speed	/jointset/patellofemoral_l/patellar_flexion_l/speed	/jointset/knee_l/knee_flexion_l/speed	/jointset/knee_l/knee_adduction_l/speed	/jointset/knee_l/knee_rotation_l/speed	/jointset/ankle_l/ankle_angle_l/speed	/jointset/subtalar_l/subtalar_angle_l/speed	/forceset/tau_hip_flexion_l	/forceset/tau_hip_adduction_l	/forceset/tau_hip_rotation_l	/forceset/tau_knee_flexion_l	/forceset/tau_ankle_angle_l	/forceset/tau_subtalar_angle_l	/forceset/tau_lumbar_extension	lambda_cid13_p0	lambda_cid13_p1	lambda_cid13_p2	lambda_cid13_p3	lambda_cid13_p4	lambda_cid13_p5	lambda_cid14_p0	/jointset/ground_pelvis/pelvis_tilt/accel	/jointset/ground_pelvis/pelvis_tx/accel	/jointset/ground_pelvis/pelvis_ty/accel	/jointset/hip_l/hip_flexion_l/accel	/jointset/hip_l/hip_adduction_l/accel	/jointset/hip_l/hip_rotation_l/accel	/jointset/back/lumbar_extension/accel	/jointset/patellofemoral_l/patellar_flexion_l/accel	/jointset/knee_l/knee_flexion_l/accel	/jointset/knee_l/knee_adduction_l/accel	/jointset/knee_l/knee_rotation_l/accel	/jointset/ankle_l/ankle_angle_l/accel	/jointset/subtalar_l/subtalar_angle_l/accel	gamma_cid13_p0	gamma_cid13_p1	gamma_cid13_p2	gamma_cid13_p3	gamma_cid13_p4	gamma_cid13_p5	gamma_cid14_p0
1	-0.6552441356773417	-0.1325972788202327	0.6260247564646279	1.865308656644159	-0.3040068760539684	0.09362514911115477	-0.4363160263145806	1.085539391364191	1.085539391364166	-0.1744388039331269	0.1744942668437215	0.06280772296935677	-0.04262910717666261	-0.009565089309190301	0.001136793755071297	-0.003063086538592559	0.01558684409859582	0.0006819574241478308	0.003816420421513738	0.000115423353662703	0.009696693196676235	0.00969669319667622	-6.871449959005584e-05	-5.974410533164476e-05	0.004482289377248184	0.001507810324270638	-0.4350063640719414	0.01116154720271343	-0.01971517049417723	-0.2305352296238009	0.1469879608098263	0.03712323919623678	0.3503966546188255	1.386247277685777	-16.65794041301658	2.587527119875097	5.062199068338188	-720.5225745712401	-46.55236419602718	-4.479467825714982	1.998324837021589	0.3422546524957721	1.534934347838366	-6.053673239362759	-0.2490971043408528	-1.535140869794478	-0.05024788144714847	-4.250205755181109	-4.250205755181111	-0.04101804265513848	0.009925879676323539	-0.4519679524373039	-0.3026448207448713	1.328815888673648e-09	1.624469538280199e-09	-5.633078912717239e-09	-1.889170420896219e-09	1.818184742512665e-09	-1.334744428274358e-09	9.313856397328588e-10
1.01	-0.6552415267182884	-0.1325690333212528	0.6260705656541062	1.865164041654962	-0.3040117589748353	0.09358581688897251	-0.4363159368838192	1.085424032092169	1.08542403209215	-0.1744397084082909	0.1744936967508884	0.06282974987569967	-0.04262840723497073	0.009993288870727764	0.004495759482954363	0.01220371463933024	-0.04438220103979873	-0.001655906855313721	-0.0117007263870893	-3.291541446457454e-05	-0.03276862855405713	-0.03276862855405712	-9.443233757057163e-05	-4.838350730657403e-05	-0.000113775975173844	-0.001372427825187928	-0.4343176268210696	0.01117670353050988	-0.0197162386872347	-0.2304257553822174	0.14665708969867	0.0371487758951012	0.3498382237713076	1.315855129296605	-16.65720165604699	2.587975623340274	5.244700165740307	-719.8637155128981	-46.57053855380522	-4.484735717216009	1.920555075174523	0.3302348383764085	1.519371407862404	-5.949374414880906	-0.2257360898066706	-1.562683299971755	0.0125663935405889	-4.244706942985051	-4.244706942985063	0.0193119312203777	-0.002377315072984735	-0.4689558868336486	-0.2814039556353231	-2.825196552633728e-10	-7.100590659143743e-09	7.365111594289955e-09	-3.537670999534988e-09	-6.038634245607819e-10	8.326715084181312e-09	-2.886310010024335e-09
1.02	-0.6550461418240962	-0.1325076947039057	0.6262684065363825	1.864423565361621	-0.3040399415385086	0.0933907768559885	-0.4363153921871318	1.084884017291046	1.084884017291033	-0.1744403379447168	0.1744934165710477	0.06280471011648052	-0.0426566478034912	0.02899009771855031	0.007755417428509845	0.02734325202098013	-0.1035854167303176	-0.00397797113708986	-0.0273251417388348	0.0002064765388524364	-0.07523441262341518	-0.0752344126234154	-1.372675195565186e-05	-1.761506824851566e-06	-0.004931043735155747	-0.004280291718205458	-0.4336288895701979	0.01119185985830633	-0.01971730688029217	-0.2303162811406338	0.1463262185875144	0.03717431259396563	0.3492797929237897	1.239331893221658	-16.65618235292274	2.589285259284285	5.440359838997244	-719.2890678638772	-46.56693584230593	-4.509354375541726	1.886010970602486	0.322393096030255	1.509481588583785	-5.90050734978762	-0.2459371048037702	-1.556594578423058	0.0272982628417086	-4.250298218906098	-4.2502982189061	-0.01973335793605142	0.01697816016765355	-0.4962084339492786	-0.308169969456664	-3.376593712716036e-09	-1.214994929744148e-08	3.132018180108164e-08	-1.328135690158552e-09	-6.407642055827284e-09	2.347201161311889e-08	-7.518219767087369e-09
1.03	-0.6546620709569736	-0.1324140794699077	0.626617185453452	1.863093226250222	-0.3040912398157053	0.09303941028123662	-0.4363119482088113	1.083919491613954	1.083919491613938	-0.1744399759448602	0.1744936110887141	0.06273072333098484	-0.04271401147204364	0.04788139636315564	0.01096850750228653	0.04240914162881323	-0.1625192089608728	-0.006275682956467385	-0.04292200084948244	0.0004052823647152199	-0.1176563664242758	-0.1176563664242758	7.139716578827454e-05	2.939265019417186e-05	-0.009870246603319074	-0.007186906545848647	-0.4331807281068156	0.01131196357555836	-0.01971912931302456	-0.2300605363268399	0.1459587369989413	0.03730229027885245	0.3489300584234746	1.147083114288437	-16.70000752212894	2.60129405895152	5.548669071058112	-718.8797131768515	-46.63015215637406	-4.553494566267156	1.899286195719626	0.3208988805127521	1.50463169769682	-5.89533715808003	-0.2207936899294901	-1.557316088637481	0.004616228376589766	-4.235988045240238	-4.235988045240149	0.0204221435859078	-0.005520055750955894	-0.4933652514815764	-0.2810808247309666	-6.4857977550005e-09	-1.71618007769726e-08	5.538705690276915e-08	9.207673323609193e-10	-1.224592814081006e-08	3.867326566263286e-08	-1.215843783136781e-08
1.04	-0.6540873677265391	-0.1322883069516796	0.6271165210767626	1.86117244481684	-0.3041653363049809	0.09253285821312786	-0.4363088272750485	1.08253117758194	1.082531177581921	-0.1744392053304351	0.1744937763281065	0.06260722670916118	-0.04280027600593508	0.06711657038096386	0.01418687427451834	0.05745459326919668	-0.2216738811270526	-0.008537613552833639	-0.05836224041020475	0.0001418676272991094	-0.1599920836077045	-0.1599920836077036	6.799616178558459e-05	-7.617161587499151e-06	-0.0148330110007511	-0.01006046478600466	-0.4327325666434332	0.01143206729281036	-0.01972095174575692	-0.229804791513046	0.1455912554103682	0.03743026796373924	0.3485803239231594	1.048619824663389	-16.74352193126993	2.614141344150296	5.671467448934673	-718.5549163703289	-46.67194707184046	-4.617378075198945	1.954786045243065	0.3234484357212782	1.505393995093857	-5.944683336912731	-0.2387808602015161	-1.525270668437993	-0.06514584981407048	-4.233050895419726	-4.233050895419757	-0.03743834228537482	0.00334536640737582	-0.5009207398030177	-0.301558651959229	-9.686064378827534e-09	-2.748590611690861e-08	6.748427052672276e-08	2.501449222515796e-09	-1.705062570501714e-08	4.845405023484396e-08	-1.598480923082559e-08
1.05	-0.6533190372708415	-0.1321302890772151	0.627766141385573	1.858659447057959	-0.3042618846165345	0.09187235436024647	-0.4363097825267732	1.080719920130142	1.08071992013013	-0.1744387085014094	0.1744934740079024	0.06243393422233496	-0.04291513073360129	0.08656368166712121	0.01742118933396428	0.07245950892307214	-0.2809204241333416	-0.01076653188331078	-0.07374788058476971	-0.0003244806238496842	-0.2022464579739659	-0.2022464579739651	3.971780131983683e-05	-3.927595087889431e-05	-0.01983389877042849	-0.01290611714148761	-0.432324848761042	0.01162008183336303	-0.01973900668968806	-0.2294486382716728	0.1452931291918094	0.03761297765941009	0.3483906187584461	0.977691215776284	-16.81897771471869	2.635907521976567	5.684151538367344	-718.221652576764	-46.75811229931062	-4.70139766125379	1.941795814247389	0.3240971763998541	1.49654200225053	-5.913855288707351	-0.2141264546411533	-1.546630766374227	-0.03611371050887272	-4.219684395008794	-4.219684395008795	0.01572152967007673	-0.004405493388166445	-0.500934171525058	-0.2754172602855589	-1.288917670832777e-08	-3.797601938998225e-08	7.920743222949726e-08	4.061249202284283e-09	-2.182302362794999e-08	5.806544513588937e-08	-1.978574792200766e-08
1.06	-0.6523558112734932	-0.1319397932250874	0.6285655111812655	1.85555414076777	-0.3043805579384269	0.09105771009073774	-0.436315148140558	1.078486508197126	1.078486508197121	-0.174438245633469	0.1744932583014471	0.06221038058261699	-0.04305831173141088	0.1060956787110916	0.02068246980715439	0.08740449064559365	-0.3401355873884456	-0.01296261562060143	-0.08919032373567394	-0.0007402047847419828	-0.2444229798514056	-0.2444229798514048	6.120394474414244e-05	9.705588198937612e-06	-0.02488524157910424	-0.0157257188146798	-0.4319171308786198	0.01180809637391568	-0.01975706163361913	-0.2290924850302997	0.1449950029732659	0.0377956873550809	0.3482009135937327	0.9004804148021606	-16.89415754560932	2.658571025501991	5.711199975411096	-717.9738964157328	-46.82348508426819	-4.806014788476293	1.971763196805675	0.328841518470112	1.493407208823072	-5.938407386675726	-0.232213941564217	-1.536631263705848	-0.05502103176277152	-4.217480397655397	-4.217480397655395	-0.02748544150736418	0.01947343208122098	-0.5110117476026904	-0.2963485155010749	-1.5945037600324e-08	-4.195582612061444e-08	9.841782054785728e-08	7.051649000848307e-09	-2.575719145535583e-08	6.858234731111222e-08	-2.339863723634072e-08
1.07	-0.6511975365002535	-0.1317165449748703	0.629513907981849	1.851857633370675	-0.3045209055652514	0.09008876340631193	-0.4363235120225836	1.075831711415307	1.075831711415316	-0.1744374967919559	0.1744936058477291	0.06193600929649289	-0.04322943899066383	0.1255018047372831	0.02397198876150361	0.1022524085858248	-0.3990790892298958	-0.01508714544108804	-0.1045702696794326	-0.000831103457947529	-0.2865242696826643	-0.2865242696826646	8.456118370006561e-05	3.88673627187765e-05	-0.03000220078930058	-0.01848119619957385	-0.4311673004407979	0.01201240283262965	-0.0197910941263917	-0.2288029380772178	0.1450273522070003	0.03798055881100699	0.3478728320831321	0.9471015806882708	-16.99615577820846	2.690304542400623	5.573130159575094	-717.4859625478626	-46.93909747883484	-4.931881841847779	1.916414110620096	0.329730429696476	1.477108969471508	-5.859304359072428	-0.1996191826373355	-1.534388281056623	0.0290959392734616	-4.204631800151112	-4.204631800151316	0.01663653874807429	-0.008531418211913786	-0.5140148013436644	-0.2623735849608528	-1.899306596904874e-08	-4.558933995005289e-08	1.180264656010889e-07	1.011814453445465e-08	-2.964677257555277e-08	7.914741476687645e-08	-2.700152392424565e-08
1.08	-0.6498469251057331	-0.1314602568659539	0.6306101089384045	1.847574294399926	-0.3046819078263499	0.08896687485817936	-0.4363297408464676	1.072756266030318	1.07275626603034	-0.1744366363316219	0.1744936112180865	0.06161007305954373	-0.04342756627076117	0.1445630029672429	0.02729044154701882	0.1169653218399912	-0.4575019021190572	-0.01709354247541658	-0.1197786964770214	-0.0003131931562367252	-0.3285527004855235	-0.3285527004855255	8.35277089332232e-05	-5.872959673009357e-05	-0.03519823174411928	-0.02112572298355922	-0.430417470002976	0.01221670929134363	-0.01982512661916427	-0.2285133911241359	0.1450597014407348	0.03816543026693308	0.3475447505725315	0.9874158866320732	-17.09796105513808	2.723048344477234	5.449417859744354	-717.0836896978062	-47.03524161565215	-5.07968330633016	1.902777637559316	0.334628284703313	1.466406271610122	-5.83426959621805	-0.2085873843326003	-1.502327434471885	0.06674076322049621	-4.202908591975508	-4.202908591975523	-0.0323635842519173	-0.005878314712275237	-0.5268260965271604	-0.2741583953193374	-2.054860254668628e-08	-5.490915311992747e-08	1.28076586177333e-07	8.396743762856447e-09	-3.260480271650335e-08	8.740165753905983e-08	-3.044291247762374e-08
